<svg xmlns="http://www.w3.org/2000/svg" id="bodybuilding" enable-background="new 0 0 64 64" viewBox="0 0 64 64">
  <circle cx="32" cy="32" r="32" fill="#f16150"></circle>
  <path fill="#fbb044" d="M54.8,34.2H9.2C8,34.2,7,33.2,7,32l0,0c0-1.2,1-2.2,2.2-2.2h45.5c1.2,0,2.2,1,2.2,2.2l0,0
				C57,33.2,56,34.2,54.8,34.2z"></path>
  <path fill="#143751" d="M54.8,35.2H9.2C7.5,35.2,6,33.8,6,32c0-1.8,1.5-3.2,3.2-3.2h45.5c1.8,0,3.2,1.5,3.2,3.2
				C58,33.8,56.5,35.2,54.8,35.2z M9.2,30.8C8.6,30.8,8,31.3,8,32c0,0.7,0.6,1.2,1.2,1.2h45.5c0.7,0,1.2-0.6,1.2-1.2
				c0-0.7-0.6-1.2-1.2-1.2H9.2z"></path>
  <g>
    <path fill="#d2d2d2" d="M40.6,39.7V24.3c0-1.8,1.5-3.3,3.3-3.3l0,0c1.8,0,3.3,1.5,3.3,3.3v15.4c0,1.8-1.5,3.3-3.3,3.3l0,0
						C42.1,43,40.6,41.5,40.6,39.7z"></path>
    <path fill="#143751" d="M43.9,44c-2.4,0-4.3-1.9-4.3-4.3V24.3c0-2.4,1.9-4.3,4.3-4.3c2.4,0,4.3,1.9,4.3,4.3v15.4
						C48.2,42.1,46.3,44,43.9,44z M43.9,22c-1.3,0-2.3,1-2.3,2.3v15.4c0,1.3,1,2.3,2.3,2.3c1.3,0,2.3-1,2.3-2.3V24.3
						C46.2,23.1,45.2,22,43.9,22z"></path>
    <g>
      <path fill="#f9f9f9" d="M47.2,35.8v-7.6c0-1.8,1.5-3.3,3.3-3.3l0,0c1.8,0,3.3,1.5,3.3,3.3v7.6c0,1.8-1.5,3.3-3.3,3.3l0,0
						C48.7,39.1,47.2,37.6,47.2,35.8z"></path>
      <path fill="#143751" d="M50.5,40.1c-2.4,0-4.3-1.9-4.3-4.3v-7.6c0-2.4,1.9-4.3,4.3-4.3s4.3,1.9,4.3,4.3v7.6
						C54.8,38.2,52.9,40.1,50.5,40.1z M50.5,25.9c-1.3,0-2.3,1-2.3,2.3v7.6c0,1.3,1,2.3,2.3,2.3c1.3,0,2.3-1,2.3-2.3v-7.6
						C52.8,26.9,51.8,25.9,50.5,25.9z"></path>
    </g>
    <g>
      <path fill="#d2d2d2" d="M23.9,39.7V24.3c0-1.8-1.5-3.3-3.3-3.3l0,0c-1.8,0-3.3,1.5-3.3,3.3v15.4c0,1.8,1.5,3.3,3.3,3.3l0,0
						C22.4,43,23.9,41.5,23.9,39.7z"></path>
      <path fill="#143751" d="M20.6,44c-2.4,0-4.3-1.9-4.3-4.3V24.3c0-2.4,1.9-4.3,4.3-4.3s4.3,1.9,4.3,4.3v15.4
						C24.9,42.1,23,44,20.6,44z M20.6,22c-1.3,0-2.3,1-2.3,2.3v15.4c0,1.3,1,2.3,2.3,2.3c1.3,0,2.3-1,2.3-2.3V24.3
						C22.9,23.1,21.8,22,20.6,22z"></path>
      <g>
        <path fill="#f9f9f9" d="M17.3,35.8v-7.6c0-1.8-1.5-3.3-3.3-3.3l0,0c-1.8,0-3.3,1.5-3.3,3.3v7.6c0,1.8,1.5,3.3,3.3,3.3l0,0
						C15.8,39.1,17.3,37.6,17.3,35.8z"></path>
        <path fill="#143751" d="M14,40.1c-2.4,0-4.3-1.9-4.3-4.3v-7.6c0-2.4,1.9-4.3,4.3-4.3s4.3,1.9,4.3,4.3v7.6
						C18.3,38.2,16.4,40.1,14,40.1z M14,25.9c-1.3,0-2.3,1-2.3,2.3v7.6c0,1.3,1,2.3,2.3,2.3c1.3,0,2.3-1,2.3-2.3v-7.6
						C16.3,26.9,15.2,25.9,14,25.9z"></path>
      </g>
    </g>
  </g>
</svg>
